<?xml version="1.0" standalone="no"?>
<!DOCTYPE svg PUBLIC "-//W3C//DTD SVG 20010904//EN"
 "http://www.w3.org/TR/2001/REC-SVG-20010904/DTD/svg10.dtd">
<svg version="1.0" xmlns="http://www.w3.org/2000/svg"
 width="820.000000pt" height="820.000000pt" viewBox="0 0 820.000000 820.000000"
 preserveAspectRatio="xMidYMid meet">

<g transform="translate(0.000000,820.000000) scale(0.100000,-0.100000)"
fill="#000000" stroke="none">
<path d="M4007 7470 c-119 -21 -230 -108 -288 -226 -32 -65 -34 -74 -34 -179
0 -125 15 -177 71 -251 19 -24 34 -46 34 -48 0 -2 -44 -9 -97 -15 -622 -76
-1171 -306 -1598 -672 -260 -222 -465 -485 -610 -784 -168 -345 -247 -672
-270 -1117 l-7 -128 -165 0 c-178 0 -202 -6 -242 -56 -43 -54 -36 -148 19
-269 91 -200 342 -369 705 -474 177 -51 440 -90 608 -91 l98 0 -8 -47 c-28
-166 36 -324 193 -474 57 -54 717 -586 894 -719 245 -185 393 -311 541 -460
132 -132 273 -319 255 -337 -2 -3 -64 -22 -136 -43 -166 -48 -200 -77 -200
-172 0 -58 30 -105 83 -128 53 -23 49 -24 312 51 116 33 224 64 240 68 17 5
165 48 330 96 165 48 368 106 450 130 83 24 269 78 415 120 146 42 281 84 300
93 87 42 109 167 41 233 -56 53 -103 51 -331 -15 -102 -30 -187 -53 -189 -50
-6 6 49 211 86 319 62 180 206 456 302 575 20 25 72 88 117 140 261 308 358
459 371 580 3 33 8 60 11 60 18 0 270 55 327 71 427 124 675 318 741 578 25
100 7 161 -59 201 -28 18 -51 20 -199 20 -128 0 -168 3 -168 13 0 71 -24 366
-36 452 -90 639 -387 1186 -857 1577 -421 350 -925 565 -1527 649 -85 12 -156
23 -158 24 -2 2 12 23 31 48 48 63 77 154 77 243 0 264 -221 457 -473 414z
m136 -311 c37 -29 54 -88 38 -138 -29 -99 -149 -111 -196 -21 -29 55 -12 130
37 164 32 22 90 20 121 -5z m307 -704 c523 -66 1003 -260 1370 -554 225 -180
443 -447 575 -702 153 -297 254 -718 255 -1061 l0 -88 -2570 0 -2570 0 0 95
c0 326 86 703 229 1000 215 448 567 797 1042 1034 335 167 698 263 1114 295
101 8 433 -4 555 -19z m2540 -2705 c0 -12 -98 -79 -168 -114 -125 -63 -323
-125 -502 -158 -61 -11 -469 -13 -2245 -13 -2032 0 -2176 1 -2262 18 -172 33
-353 91 -478 154 -62 31 -165 103 -165 114 0 5 1305 9 2910 9 1858 0 2910 -3
2910 -10z m-1630 -599 c0 -5 -8 -15 -17 -22 -9 -8 -54 -70 -99 -139 -99 -150
-126 -178 -224 -224 -81 -39 -142 -46 -188 -22 -37 20 -121 109 -227 241 -49
61 -102 125 -119 143 l-30 32 452 0 c253 0 452 -4 452 -9z m-1324 -19 c28 -10
64 -29 80 -42 44 -37 179 -189 304 -342 171 -210 250 -273 384 -303 112 -26
239 0 387 76 115 60 176 121 284 285 103 156 138 188 260 238 66 26 222 63
231 54 17 -18 -71 -137 -295 -403 -118 -139 -184 -235 -271 -391 -110 -200
-165 -340 -235 -594 -59 -212 -60 -216 -48 -255 6 -19 8 -37 5 -39 -16 -9
-701 -206 -717 -206 -6 0 -22 22 -34 50 -100 221 -365 495 -801 830 -147 113
-363 282 -370 290 -3 3 -129 104 -280 225 -151 121 -297 241 -323 268 -97 96
-115 205 -37 222 67 15 127 -22 283 -171 56 -54 154 -142 217 -195 386 -322
484 -401 507 -410 86 -32 193 40 193 131 0 58 -18 95 -63 133 -573 476 -580
483 -574 501 2 6 18 21 37 34 43 29 125 30 179 2 22 -11 161 -144 328 -315
316 -323 331 -335 409 -314 81 22 125 99 104 179 -9 32 -49 79 -206 241 -107
111 -192 205 -187 210 31 30 174 37 249 11z"/>
<path d="M3992 6290 c-102 -44 -112 -206 -15 -261 20 -12 67 -19 158 -23 452
-25 831 -140 1159 -353 404 -262 672 -645 776 -1108 23 -104 41 -134 92 -161
39 -20 107 -17 145 6 84 51 83 149 -4 415 -194 598 -623 1046 -1243 1300 -195
80 -337 120 -577 161 -163 27 -451 42 -491 24z"/>
</g>
</svg>
